HIERARCHY
ROOT hip
{
  OFFSET 0 0 0
  CHANNELS 6 Xposition Yposition Zposition Zrotation Yrotation Xrotation
  JOINT abdomen
  {
    OFFSET 0 20.6881 -0.73152
    CHANNELS 3 Zrotation Xrotation Yrotation
    JOINT chest
    {
      OFFSET 0 11.7043 -0.48768
      CHANNELS 3 Zrotation Xrotation Yrotation
      JOINT neck
      {
        OFFSET 0 22.1894 -2.19456
        CHANNELS 3 Zrotation Xrotation Yrotation
        JOINT head
        {
          OFFSET -0.24384 7.07133 1.2192
          CHANNELS 3 Zrotation Xrotation Yrotation
          JOINT leftEye
          {
            OFFSET 4.14528 8.04674 8.04672
            CHANNELS 3 Zrotation Xrotation Yrotation
            End Site
            {
              OFFSET 1 0 0
            }
          }
          JOINT rightEye
          {
            OFFSET -3.6576 8.04674 8.04672
            CHANNELS 3 Zrotation Xrotation Yrotation
            End Site
            {
              OFFSET 1 0 0
            }
          }
        }
      }
      JOINT rCollar
      {
        OFFSET -2.68224 19.2634 -4.8768
        CHANNELS 3 Zrotation Xrotation Yrotation
        JOINT rShldr
        {
          OFFSET -8.77824 -1.95073 1.46304
          CHANNELS 3 Zrotation Xrotation Yrotation
          JOINT rForeArm
          {
            OFFSET -28.1742 -1.7115 0.48768
            CHANNELS 3 Zrotation Xrotation Yrotation
            JOINT rHand
            {
              OFFSET -22.5879 0.773209 7.07136
              CHANNELS 3 Zrotation Xrotation Yrotation
              JOINT rThumb1
              {
                OFFSET -1.2192 -0.487915 3.41376
                CHANNELS 3 Zrotation Xrotation Yrotation
                JOINT rThumb2
                {
                  OFFSET -3.37035 -0.52449 3.41376
                  CHANNELS 3 Zrotation Xrotation Yrotation
                  End Site
                  {
                    OFFSET -1.78271 -1.18214 1.43049
                  }
                }
              }
              JOINT rIndex1
              {
                OFFSET -7.75947 0.938293 5.60832
                CHANNELS 3 Zrotation Xrotation Yrotation
                JOINT rIndex2
                {
                  OFFSET -2.54057 -0.884171 1.56538
                  CHANNELS 3 Zrotation Xrotation Yrotation
                  End Site
                  {
                    OFFSET -1.62519 -0.234802 1.16502
                  }
                }
              }
              JOINT rMid1
              {
                OFFSET -8.24714 1.18213 3.41376
                CHANNELS 3 Zrotation Xrotation Yrotation
                JOINT rMid2
                {
                  OFFSET -3.10165 -0.590103 1.0647
                  CHANNELS 3 Zrotation Xrotation Yrotation
                  End Site
                  {
                    OFFSET -2.48547 -0.328903 0.83742
                  }
                }
              }
              JOINT rRing1
              {
                OFFSET -8.82822 0.546677 1.51678
                CHANNELS 3 Zrotation Xrotation Yrotation
                JOINT rRing2
                {
                  OFFSET -2.60934 -0.819778 -0.0198488
                  CHANNELS 3 Zrotation Xrotation Yrotation
                  End Site
                  {
                    OFFSET -2.33842 -0.294052 0.168128
                  }
                }
              }
              JOINT rPinky1
              {
                OFFSET -8.27202 -0.0477905 -0.4584
                CHANNELS 3 Zrotation Xrotation Yrotation
                JOINT rPinky2
                {
                  OFFSET -1.82734 -0.647385 -0.700984
                  CHANNELS 3 Zrotation Xrotation Yrotation
                  End Site
                  {
                    OFFSET -1.69225 -0.51767 -0.607171
                  }
                }
              }
            }
          }
        }
      }
      JOINT lCollar
      {
        OFFSET 2.68224 19.2634 -4.8768
        CHANNELS 3 Zrotation Xrotation Yrotation
        JOINT lShldr
        {
          OFFSET 8.77824 -1.95073 1.46304
          CHANNELS 3 Zrotation Xrotation Yrotation
          JOINT lForeArm
          {
            OFFSET 28.1742 -1.7115 0.48768
            CHANNELS 3 Zrotation Xrotation Yrotation
            JOINT lHand
            {
              OFFSET 22.5879 0.773209 7.07136
              CHANNELS 3 Zrotation Xrotation Yrotation
              JOINT lThumb1
              {
                OFFSET 1.2192 -0.487915 3.41376
                CHANNELS 3 Zrotation Xrotation Yrotation
                JOINT lThumb2
                {
                  OFFSET 3.37035 -0.52449 3.41376
                  CHANNELS 3 Zrotation Xrotation Yrotation
                  End Site
                  {
                    OFFSET 1.78271 -1.18214 1.43049
                  }
                }
              }
              JOINT lIndex1
              {
                OFFSET 7.75947 0.938293 5.60832
                CHANNELS 3 Zrotation Xrotation Yrotation
                JOINT lIndex2
                {
                  OFFSET 2.54057 -0.884171 1.56538
                  CHANNELS 3 Zrotation Xrotation Yrotation
                  End Site
                  {
                    OFFSET 1.62519 -0.234802 1.16502
                  }
                }
              }
              JOINT lMid1
              {
                OFFSET 8.24714 1.18213 3.41376
                CHANNELS 3 Zrotation Xrotation Yrotation
                JOINT lMid2
                {
                  OFFSET 3.10165 -0.590103 1.0647
                  CHANNELS 3 Zrotation Xrotation Yrotation
                  End Site
                  {
                    OFFSET 2.48547 -0.328903 0.83742
                  }
                }
              }
              JOINT lRing1
              {
                OFFSET 8.82822 0.546677 1.51678
                CHANNELS 3 Zrotation Xrotation Yrotation
                JOINT lRing2
                {
                  OFFSET 2.60934 -0.819778 -0.0198488
                  CHANNELS 3 Zrotation Xrotation Yrotation
                  End Site
                  {
                    OFFSET 2.33842 -0.294052 0.168128
                  }
                }
              }
              JOINT lPinky1
              {
                OFFSET 8.27202 -0.0477905 -0.4584
                CHANNELS 3 Zrotation Xrotation Yrotation
                JOINT lPinky2
                {
                  OFFSET 1.82734 -0.647385 -0.700984
                  CHANNELS 3 Zrotation Xrotation Yrotation
                  End Site
                  {
                    OFFSET 1.69225 -0.51767 -0.607171
                  }
                }
              }
            }
          }
        }
      }
    }
  }
  JOINT rButtock
  {
    OFFSET -8.77824 4.35084 1.2192
    CHANNELS 3 Zrotation Xrotation Yrotation
    JOINT rThigh
    {
      OFFSET 0 -1.70687 -2.19456
      CHANNELS 3 Zrotation Xrotation Yrotation
      JOINT rShin
      {
        OFFSET 0 -36.8199 0.73152
        CHANNELS 3 Zrotation Xrotation Yrotation
        JOINT rFoot
        {
          OFFSET 0.73152 -45.1104 -5.12064
          CHANNELS 3 Zrotation Xrotation Yrotation
          End Site
          {
            OFFSET -1.1221 -3.69964 12.103
          }
        }
      }
    }
  }
  JOINT lButtock
  {
    OFFSET 8.77824 4.35084 1.2192
    CHANNELS 3 Zrotation Xrotation Yrotation
    JOINT lThigh
    {
      OFFSET 0 -1.70687 -2.19456
      CHANNELS 3 Zrotation Xrotation Yrotation
      JOINT lShin
      {
        OFFSET 0 -36.8199 0.73152
        CHANNELS 3 Zrotation Xrotation Yrotation
        JOINT lFoot
        {
          OFFSET -0.73152 -45.1104 -5.12064
          CHANNELS 3 Zrotation Xrotation Yrotation
          End Site
          {
            OFFSET 1.1221 -3.69964 12.103
          }
        }
      }
    }
  }
}
MOTION
Frames:	4
Frame Time:	0.03333
0.05574939138781923 58.60891753196312 0.4088240943810073 -76.17105865478516 -0.7946065068244934 7.898845195770264 -67.3260726928711 0.25706398487091064 17.98048210144043 56.463172912597656 -0.1920328289270401 6.209945201873779 -77.76860809326172 -0.03995148837566376 24.47696304321289 80.80630493164062 -0.37891092896461487 40.49422073364258 3.7382798194885254 0.09139992296695709 -10.57187557220459 -1.2362332344055176 0.017499931156635284 -13.621909141540527 5.083381652832031 0.08285854011774063 -7.57129430770874 90.57647705078125 0.5191931128501892 -50.92621994018555 -88.72200012207031 -0.4706459641456604 130.66297912597656 -37.0686149597168 -1.2982937097549438 -1.7067137956619263 -11.46261978149414 0.10848342627286911 6.706462383270264 -5.236320972442627 -0.13215221464633942 6.222447395324707 5.558170795440674 0.20621353387832642 1.9527148008346558 80.23548889160156 0.17618809640407562 9.897567749023438 2.9211294651031494 0.0017676115967333317 -1.845210313796997 64.71841430664062 -0.006819410249590874 2.347020149230957 4.345569133758545 0.0942668691277504 -1.079967975616455 82.45968627929688 0.1260799616575241 9.896421432495117 -6.255886077880859 -0.20451487600803375 -8.626172065734863 60.978397369384766 0.07329050451517105 -0.3364495635032654 6.621241569519043 -0.19549991190433502 9.427450180053711 -88.89494323730469 -0.4795660376548767 -19.916610717773438 88.80648040771484 -0.8847238421440125 -110.6538314819336 43.208709716796875 0.584692656993866 -9.064591407775879 4.102224349975586 0.12018489837646484 -12.430511474609375 6.599859714508057 -0.04994261637330055 7.600027084350586 -7.3952436447143555 0.2060394436120987 -1.2347432374954224 -82.68827819824219 -0.13553881645202637 26.730241775512695 -0.49887925386428833 -0.029185112565755844 4.650130271911621 -66.68402862548828 0.09919274598360062 0.7128931283950806 -7.06677770614624 -0.18207639455795288 14.035384178161621 -83.90702056884766 0.07053324580192566 6.023336410522461 -4.0851216316223145 0.10041486471891403 -1.8107140064239502 -68.20793914794922 -0.26164624094963074 11.663623809814453 1.080880880355835 -0.09885501116514206 6.162705421447754 -86.47750091552734 -0.8319937586784363 -10.980914115905762 -38.03212356567383 3.72994065284729 3.1061408519744873 -76.52265930175781 -0.5007526874542236 -27.618927001953125 1.2867207527160645 0.02421957068145275 0.5883777737617493 89.36160278320312 0.9749082922935486 -177.54196166992188 21.398193359375 2.066741466522217 -2.086477518081665 76.4358139038086 0.13224197924137115 -23.573171615600586
-0.4092203253941474 62.29260247589108 -0.17128046705342465 -86.50228118896484 -0.6559090614318848 114.01947021484375 -35.790283203125 0.5417028665542603 1.0418263673782349 39.744232177734375 -0.4311625063419342 -1.2653239965438843 -61.482601165771484 0.488716185092926 -5.613645553588867 79.96495056152344 -0.2062116414308548 -2.93662428855896 -1.2001959085464478 -0.1801101267337799 1.4024966955184937 -3.329342842102051 -0.005359757225960493 1.408370852470398 0.21982716023921967 -0.2363622933626175 9.925678253173828 87.99113464355469 -0.7053147554397583 50.9246826171875 -87.11882019042969 -1.2022547721862793 68.72145080566406 -30.321128845214844 0.9232867956161499 0.16864526271820068 -6.053075790405273 0.07739036530256271 -0.669790506362915 0.4024251699447632 0.10907849669456482 -0.9781094193458557 -3.96162486076355 -0.02343200519680977 -5.16998815536499 69.57634735107422 -0.028715234249830246 -2.4741556644439697 -2.4740042686462402 0.04285340756177902 4.030304431915283 44.90452575683594 0.06006608158349991 2.662127733230591 -1.3866993188858032 0.13433131575584412 11.999177932739258 74.12619018554688 -0.005801711697131395 3.5058164596557617 6.455824851989746 -0.12605829536914825 7.7043328285217285 44.32479476928711 0.028232159093022346 7.318362236022949 1.9964083433151245 0.045354828238487244 -2.994656562805176 -89.46308898925781 2.265150308609009 3.079913854598999 86.6781234741211 -0.4580465257167816 -59.338584899902344 32.51966094970703 -1.7114003896713257 17.620887756347656 -0.8600049614906311 0.015162498690187931 8.608177185058594 -11.1571626663208 0.16172371804714203 -1.2414898872375488 0.6230310797691345 0.06973902136087418 12.741199493408203 -76.12799835205078 0.03367774188518524 -6.25184965133667 -5.410667896270752 0.0027068359777331352 3.156583309173584 -45.88776779174805 0.28992101550102234 1.143317461013794 -1.3660707473754883 0.024505730718374252 -15.031492233276367 -75.5201187133789 0.18944476544857025 0.5175949931144714 -0.5617642998695374 -0.2832757234573364 3.522885799407959 -43.32651901245117 0.27004721760749817 -1.507249355316162 4.999299049377441 0.08246895670890808 -7.536258220672607 -82.18769836425781 -0.9517955780029297 -1.2414530515670776 -22.856809616088867 5.443391799926758 7.762047290802002 -65.36530303955078 0.1646604686975479 0.32751405239105225 -0.8157275915145874 0.27273157238960266 8.409256935119629 86.04241943359375 -0.6155700087547302 -8.146093368530273 15.382608413696289 3.5428030490875244 7.797452449798584 69.29119110107422 -0.5943617820739746 27.469886779785156
-1.3613448537125168 59.36568200143303 -0.599664702433041 -1.2850269079208374 4.238626003265381 12.16093921661377 -5.092686176300049 15.326931953430176 4.057475566864014 5.308094024658203 -9.973925590515137 1.1768075227737427 -5.71071195602417 14.951879501342773 -4.998160362243652 10.205474853515625 -23.40737533569336 -8.8192138671875 -0.03758930787444115 0.33685600757598877 0.347172349691391 -1.5244572162628174 -0.2255864441394806 -0.403236448764801 1.147212028503418 -0.0066894893534481525 0.37370482087135315 38.34513854980469 28.34309196472168 28.39241600036621 -24.373764038085938 -24.2300968170166 66.39207458496094 -0.6957183480262756 -6.41465425491333 -0.4255906939506531 -1.182054877281189 2.0650782585144043 1.4394370317459106 -0.11912376433610916 0.26384881138801575 0.19500333070755005 0.7423532009124756 1.0431503057479858 0.972908079624176 6.740699768066406 4.939579010009766 1.7826391458511353 -0.22001156210899353 0.2897283136844635 -0.587557852268219 3.2223141193389893 0.8648964166641235 0.48467621207237244 -0.10025239735841751 1.1452369689941406 1.055160641670227 8.663414001464844 0.29801324009895325 1.227553129196167 0.4269676208496094 -1.122071623802185 0.4622628688812256 2.105595827102661 -0.6347751617431641 0.6051173806190491 1.2769924402236938 -0.4596918225288391 0.9706523418426514 -57.24078369140625 47.44049072265625 -18.582189559936523 24.25452423095703 -26.527956008911133 -64.40221405029297 1.8429490327835083 -21.97244644165039 3.578754425048828 0.01578194461762905 -0.092478908598423 1.4157555103302002 -0.9077550172805786 -0.20384849607944489 0.2550366520881653 -0.039919573813676834 0.33649110794067383 0.7456839680671692 -7.9658122062683105 4.11706018447876 0.879481315612793 -0.3877701163291931 -0.07573285698890686 0.7672644853591919 -2.7555675506591797 1.8109259605407715 1.3234524726867676 -0.6317192912101746 -0.34064045548439026 0.16172274947166443 -8.850445747375488 1.12336266040802 0.9350423216819763 -0.5128791928291321 0.37481579184532166 1.4433438777923584 -1.5735058784484863 -0.3991801142692566 0.6443369388580322 0.5489185452461243 0.15387138724327087 0.3337443172931671 -28.070968627929688 -49.636505126953125 -21.61383628845215 -4.448239326477051 68.31716918945312 6.996036052703857 -2.480649709701538 -9.188231468200684 -5.051389694213867 0.2651832699775696 -0.12230125814676285 0.5773270726203918 17.80563735961914 -34.47025680541992 13.236430168151855 0.0995403379201889 60.49766540527344 -0.752289891242981 8.283534049987793 -13.669677734375 17.48094940185547
-2.3129598926074855 60.19275643821904 -1.6903301198333045 2.7891640663146973 9.555152893066406 10.160611152648926 -8.278623580932617 16.094985961914062 4.235706329345703 5.779284954071045 -8.357824325561523 0.7084474563598633 -7.028329372406006 15.927878379821777 -7.679072380065918 10.33906364440918 -25.909040451049805 -14.232417106628418 -0.5191400647163391 0.22915713489055634 1.3221797943115234 -1.0333776473999023 0.5023880004882812 0.15916477143764496 0.3241186738014221 -0.2974039912223816 1.1113132238388062 29.78057098388672 17.97309684753418 40.42424392700195 -24.028684616088867 -16.7618465423584 53.976051330566406 -0.09026443958282471 6.409170150756836 1.074820876121521 -1.4794552326202393 1.770149827003479 1.5833015441894531 -0.47692516446113586 0.3014407157897949 0.4515513777732849 0.5337204337120056 0.6976415514945984 0.9246195554733276 7.252725601196289 5.080705165863037 2.307112693786621 -0.46601980924606323 0.17362670600414276 0.09721393138170242 4.040443420410156 0.8980879783630371 0.8425477743148804 0.07742774486541748 0.5087891817092896 1.3489768505096436 9.054237365722656 0.5376721620559692 1.3965892791748047 0.8645043969154358 -1.0278788805007935 1.2066487073898315 1.2742725610733032 -1.2292333841323853 0.39697304368019104 0.8684681057929993 -0.4015983045101166 0.09471539407968521 -57.584251403808594 55.14132308959961 -19.63121223449707 24.38448715209961 -29.290273666381836 -66.08915710449219 1.9266120195388794 -33.22649383544922 6.732368469238281 -0.6482603549957275 -1.0011591911315918 1.3341305255889893 -1.2206025123596191 -0.3017066717147827 0.860556960105896 -0.31919950246810913 -0.3916011452674866 0.3118700087070465 -7.57023286819458 4.331088066101074 0.407304048538208 0.4293576180934906 -0.17814379930496216 0.7010782361030579 -3.582368850708008 1.5225948095321655 0.7020201683044434 -0.1517305225133896 -0.5564990043640137 0.7318208813667297 -9.562615394592285 0.3267015516757965 0.3834783434867859 -0.9013766050338745 0.19791379570960999 0.9236170053482056 -1.4784674644470215 0.22718563675880432 1.021270990371704 0.45048263669013977 -0.48915043473243713 0.24163928627967834 -32.98857879638672 -57.10125732421875 -27.69245147705078 -9.227261543273926 74.32711791992188 11.3368558883667 -2.970085620880127 -1.38676118850708 -2.718266248703003 -0.22959737479686737 0.41951680183410645 0.48226848244667053 7.186643600463867 -22.412675857543945 9.100107192993164 0.7271428108215332 57.031307220458984 -1.5627632141113281 9.448707580566406 -13.140250205993652 23.58343505859375
